<?xml version="1.0" encoding="UTF-8"?>
<svg width="12pt" height="7pt" viewBox="0 0 12 7" xmlns="http://www.w3.org/2000/svg"><clipPath id="a"><path d="m65 56h580v543h-580z" color-interpolation="auto"/></clipPath><clipPath id="b"><path d="m-488.01 520v-580h543v580z" color-interpolation="auto"/></clipPath><clipPath id="c"><path d="m-12 10h12v-20h-12z" color-interpolation="auto"/></clipPath><g color-interpolation="auto" fill="none" shape-rendering="geometricPrecision" stroke="#000" stroke-miterlimit="1.45"><path transform="matrix(0 .29922 -.18467 0 102.9 -171.55)" d="m585 535.01v-37.989" clip-path="url(#a)" stroke-width="1.5007"/><path transform="matrix(-.35278 0 0 -.35278 .88472 3.5)" d="m-15-8v16" clip-path="url(#b)"/><path transform="matrix(-.35278 0 0 -.35278 .88472 3.5)" d="m-10 0 12 8" clip-path="url(#c)"/><path transform="matrix(-.35278 0 0 -.35278 .88472 3.5)" d="m-10 0h12" clip-path="url(#c)"/><path transform="matrix(-.35278 0 0 -.35278 .88472 3.5)" d="m-10 0 12-8" clip-path="url(#c)"/></g></svg>
