<?xml version="1.0" encoding="UTF-8"?>
<svg width="12pt" height="7pt" viewBox="0 0 12 7" xmlns="http://www.w3.org/2000/svg"><clipPath id="a"><path d="m65 56h580v543h-580z" color-interpolation="auto"/></clipPath><clipPath id="b"><path d="m337.99-406.25v580h-543v-580z" color-interpolation="auto"/></clipPath><clipPath id="c"><path d="m0-10h-12v20h12z" color-interpolation="auto"/></clipPath><g color-interpolation="auto" shape-rendering="geometricPrecision" stroke="#000" text-rendering="geometricPrecision"><path transform="matrix(0 -.31564 .15787 0 -58.501 152.25)" d="m471.25 402.99v37.989" clip-path="url(#a)" fill="none" stroke-miterlimit="1.45" stroke-width="1.5804"/><circle transform="matrix(-.35278 0 0 -.35278 .88472 3.5)" cx="-15" r="5" clip-path="url(#b)" fill="#fff" stroke-linecap="square" stroke-miterlimit="10"/><g fill="none" stroke-miterlimit="1.45"><circle transform="matrix(-.35278 0 0 -.35278 .88472 3.5)" cx="-15" r="5" clip-path="url(#b)"/><path transform="matrix(-.35278 0 0 -.35278 .88472 3.5)" d="m-10 0 12 8" clip-path="url(#c)"/><path transform="matrix(-.35278 0 0 -.35278 .88472 3.5)" d="m-10 0h12" clip-path="url(#c)"/><path transform="matrix(-.35278 0 0 -.35278 .88472 3.5)" d="m-10 0 12-8" clip-path="url(#c)"/></g></g></svg>
