<svg height="6pt" viewBox="0 0 5.4545 5.4545" width="6pt" xmlns="http://www.w3.org/2000/svg"><path d="m76.13 42.488v4.7527h4.7423v-4.7527zm.25373.25425h1.3699v.78703h-1.3699zm1.6242 0h1.0862v.78703h-1.0862zm1.3405 0h1.2697v.78703h-1.2697zm-2.9647 1.0408h1.3699v.53227h-1.3699zm1.6242 0h1.0862v.53227h-1.0862zm1.3405 0h1.2697v.53227h-1.2697zm-2.9647.786h1.3699v.53227h-1.3699zm1.6242 0h1.0862v.53227h-1.0862zm1.3405 0h1.2697v.53227h-1.2697zm-2.9647.786h1.3699v.49454h-1.3699zm1.6242 0h1.0862v.49454h-1.0862zm1.3405 0h1.2697v.49454h-1.2697zm-2.9647.74879h1.3699v.88315h-1.3699zm1.6242 0h1.0862v.88315h-1.0862zm1.3405 0h1.2697v.88315h-1.2697z" fill="#6d6d6d" transform="translate(-75.774 -42.137)"/></svg>