<svg height="2.8pt" viewBox="0 0 1.8 2.8" width="1.8pt" xmlns="http://www.w3.org/2000/svg"><path d="m92.915055 119.81339c-.128308.007-.235645.1164-.235645.24598v.4532c0 .13376.114291.24598.248047.24598h.267684c-.002.47101 0 .93582 0 1.40818.000377.0969.07882.17532.1757.1757.09769.00076.177389-.078.177767-.1757v-.16588h.26355c.09789.00076.177676-.0783.177767-.17622-.000379-.0977-.08008-.17646-.177767-.1757h-.26355v-.216l.261483.004c.09788.00076.177671-.0783.177767-.17621.000484-.0967-.07696-.17574-.173633-.17725l-.265617-.003v-.32194h.267167c.133756 0 .246497-.11222.246497-.24598v-.4532c0-.13376-.112741-.24598-.246497-.24598h-.888318c-.0042 0-.0083-.00022-.0124 0zm.117822.35346h.677478v.2403h-.677478z" fill="#e95420" stroke-linecap="round" stroke-linejoin="round" transform="translate(-92.470841 -119.67785)"/></svg>