<svg height="4.2pt" viewBox="0 0 4.2 4.2" width="4.2pt" xmlns="http://www.w3.org/2000/svg"><g fill="#6d6d6d" transform="translate(-6.8523 -44.607)"><path d="m8.9523 44.75a1.9569 1.9569 0 0 0 -1.957 1.957 1.9569 1.9569 0 0 0 1.957 1.957 1.9569 1.9569 0 0 0 1.957-1.957 1.9569 1.9569 0 0 0 -1.957-1.957zm0 .31833a1.6385 1.6385 0 0 1 1.6387 1.6387 1.6385 1.6385 0 0 1 -1.6387 1.6387 1.6385 1.6385 0 0 1 -1.6387-1.6387 1.6385 1.6385 0 0 1 1.6387-1.6387z"/><g stroke-width=".21528" transform="matrix(.71982 0 0 .59688 -41.001 12.747)"><path d="m69.511779 57.013016c.07965-.09001.07384-.171257 0-.245533l-1.198032-1.346199c-.08299.168877-.08028.352797 0 .550333l.817032.918632-.817032.918633c-.175875.276184-.06161.399377 0 .550333z"/><path d="m68.285156 55.210937c-.150831.276429-.101949.553514-.07423.824218l.761719.855469-.753906.847656c-.146058.338011-.03035.58615.05665.841784l1.324218-1.488281c.05247-.05929.08928-.131072.08789-.208985-.0013-.07544-.03922-.142596-.08789-.193359l-.002-.002z"/><path d="m70.746832 57.013016c.07965-.09001.07384-.171257 0-.245533l-1.198032-1.346199c-.08299.168877-.08028.352797 0 .550333l.817032.918632-.817032.918633c-.175875.276184-.06161.399377 0 .550333z"/><path d="m69.519357 55.211358c-.149962.277032-.100388.554049-.07189.824214l.759285.855385-.751493.847593c-.148234.336472-.03105.586172.05624.841541l1.324635-1.488267c.05247-.05929.08709-.130738.08571-.208651-.0014-.07791-.04075-.148673-.09177-.199994z"/></g></g></svg>