<svg height="20pt" viewBox="0 0 18 20" width="18pt" xmlns="http://www.w3.org/2000/svg"><g stroke-linecap="round" stroke-linejoin="round" transform="translate(-153.11 -36.614)"><path d="m160.92 41.766c-1.1203.9386-.36811 2.9351-.0322 4.1763-.43341.88953-1.0358 2.4726-1.7812 3.8877-.50941.25848-1.1774.54947-1.7798.94043-.62804.40759-1.1948.93036-1.3477 1.6611-.0517.24796.0193.49041.15821.63135.50401.4303 1.0492.32718 1.6035.20508.35845-.19008.67963-.49722.97412-.84375.56067-.65976.99644-1.4414 1.2524-1.8867 1.3272-.41824 2.6908-.74355 4.0679-.94775.42272.23013 1.1392.59765 1.897.82324.39797.11848.79641.19688 1.166.1831.887-.17153.98693-.39409 1.1572-1.1528.0105-.25555-.0403-.54159-.25488-.74707-.42792-.41149-1.1188-.47161-1.8076-.46289-.64691.0082-1.2772.10339-1.7168.16553-1.0945-.64413-1.8212-1.5918-2.269-2.7671.10145-.41075.29604-1.2595.3208-2.1006.013-.44167-.0169-.86706-.15674-1.2202-.50911-.70188-.74815-.67278-1.4512-.54496zm.67968 5.4067c.34692.5615.76468 1.0765 1.2642 1.5293-.78177.16181-1.5537.37519-2.313.63281.31308-.77468.63855-1.4668 1.0488-2.1621zm-3.5801 4.3081c-.11688.14144-.22763.2616-.3457.37646.0836-.09674.14716-.19028.24023-.28418.0345-.03481.0702-.0584.10547-.09229z" fill="#eb3826" fill-rule="evenodd" stroke-width=".5"/><path d="m154.08 37.671v17.886h16.062v-13.345c-1.4552-1.517-2.9318-3.0153-4.377-4.541zm1.0137 1.0137h9.6577v4.541h4.377v11.317h-14.035zm10.671.61963 2.8081 2.9077h-2.8081z" stroke-width="4"/></g></svg>