<svg height="20pt" viewBox="0 0 20 20" width="20pt" xmlns="http://www.w3.org/2000/svg"><circle cx="10" cy="10" fill="#77216f" r="9.3756"/><g fill="#fff" transform="translate(-19.923 -19.014)"><path d="m27.974 23.212a1 1 0 0 0 -.95703 1.041 1 1 0 0 0 1.043.95703c2.438-.10448 3.7814.28955 4.5352 1.0508.75379.76123 1.1541 2.1585 1.1484 4.541a1 1 0 0 0 .99805 1.0039 1 1 0 0 0 1.002-.99805c.0062-2.5994-.39649-4.6079-1.7285-5.9531-1.332-1.3452-3.3563-1.7576-6.041-1.6426z"/><path d="m31.873 34.815a1 1 0 0 0 .95703-1.041 1 1 0 0 0 -1.043-.95703c-2.438.10448-3.7814-.28955-4.5352-1.0508-.75379-.76123-1.1541-2.1585-1.1484-4.541a1 1 0 0 0 -.99805-1.0039 1 1 0 0 0 -1.002.99805c-.0062 2.5994.39649 4.6079 1.7285 5.9531 1.332 1.3452 3.3563 1.7576 6.041 1.6426z"/></g></svg>