<svg height="5pt" viewBox="0 0 6 5" width="6pt" xmlns="http://www.w3.org/2000/svg"><g stroke-linecap="round" stroke-linejoin="bevel" stroke-width=".70556" transform="translate(-76.368 -127.44)"><path d="m76.884 131.4h4.9643v.7047h-4.9643z" fill="#78eb7b"/><path d="m76.734 127.63v4.6292h5.2689v-4.6292zm.24598.24598h4.777v.709h-4.777zm0 .95498h1.0098v.52142h-1.0098zm1.2557 0h1.0098v.52142h-1.0098zm1.2557 0h1.0098v.52142h-1.0098zm1.2557 0h1.0098v.52142h-1.0098zm-3.7672.7674h1.0098v.75034h-1.0098zm1.2557 0h1.0098v.75034h-1.0098zm1.2557 0h1.0098v.75034h-1.0098zm1.2557 0h1.0098v.75034h-1.0098zm-3.7672.99632h1.0098v.6966h-1.0098zm1.2557 0h1.0098v.6966h-1.0098zm1.2557 0h1.0098v.6966h-1.0098zm1.2557 0h1.0098v.6966h-1.0098zm-3.7672.94258h1.0098v.47594h-1.0098zm1.2557 0h1.0098v.47594h-1.0098zm1.2557 0h1.0098v.47594h-1.0098zm1.2557 0h1.0098v.47594h-1.0098z"/></g></svg>