<?xml version="1.0" encoding="UTF-8"?>
<svg width="10pt" height="10pt" viewBox="0 0 10 10" xmlns="http://www.w3.org/2000/svg"><linearGradient id="a" x1="19.65" x2="28.693" y1="55.828" y2="64.848" gradientUnits="userSpaceOnUse"><stop stop-color="#3dc0fd" offset="0"/><stop stop-color="#33a8dd" offset="1"/></linearGradient><g transform="translate(-19.168 -55.334)"><rect x="19.65" y="55.828" width="9.0364" height="9.0131" rx="1.9" fill="url(#a)"/><path d="m21.97 57.386h5.5394v5.4145h-5.5394z" fill="#63e2ff"/><path d="m21.97 57.208a.17652.17652 0 0 0 -.1757.17777v2.9481h.35192v-2.7724h5.1873v5.0627h-2.8593v.3514h3.035a.17652.17652 0 0 0 .17777-.1757v-5.4141a.17652.17652 0 0 0 -.17777-.17777z" stroke-dashoffset=".7766" stroke-linecap="round" stroke-linejoin="round"/><path d="m21.114 60.907h2.8193v2.59h-2.8193z" fill="#c3f4ff"/><g stroke-dasharray=".388056 .388056" stroke-dashoffset=".77611" stroke-linejoin="bevel"><path d="m23.521 63.322v.35156h.38867v-.35156z"/><path d="m22.745 63.322v.35156h.38867v-.35156z"/><path d="m21.97 63.322v.35156h.38672v-.35156z"/><path d="m21.193 63.322v.35156h.38867v-.35156z"/><path d="m20.937 62.8v.38867h.35352v-.38867z"/><path d="m23.757 62.745v.38672h.35352v-.38672z"/><path d="m20.937 62.025v.38867h.35352v-.38867z"/><path d="m23.757 61.968v.38867h.35352v-.38867z"/><path d="m20.937 61.249v.38672h.35352v-.38672z"/><path d="m23.757 61.193v.38867h.35352v-.38867z"/><path d="m23.443 60.732v.35156h.38867v-.35156z"/><path d="m22.665 60.732v.35156h.38867v-.35156z"/><path d="m21.89 60.732v.35156h.38867v-.35156z"/><path d="m21.115 60.732v.35156h.38672v-.35156z"/></g><path d="m26.529 58.099-1.8867 1.8092.03101-1.4382-.45889-.0093-.04703 2.1776 2.1797.04651.0098-.45889-1.4387-.03101 1.8862-1.8066z"/></g></svg>
