<svg height="5pt" viewBox="0 0 5 5" width="5pt" xmlns="http://www.w3.org/2000/svg"><g stroke-linecap="round" stroke-linejoin="round" transform="translate(.24822 .2631)"><path d="m4.2517 2.2369a1.9999 1.9999 0 0 1 -1.9999 1.9999 1.9999 1.9999 0 0 1 -1.9999-1.9999 1.9999 1.9999 0 0 1 1.9999-1.9999 1.9999 1.9999 0 0 1 1.9999 1.9999z" fill="none" stroke="#787878" stroke-width=".5"/><path d="m2.0319.90206c-.091249.00488-.16327.07966-.16327.17209v1.3705c0 .095396.077342.1721.17273.1721h.41291c.095396 0 .1721-.076732.1721-.1721v-1.3705c0-.095396-.076732-.17209-.1721-.17209h-.41291c-.00244 0-.0061-.00014639-.00976 0zm0 1.924c-.091249.0048796-.16327.07966-.16327.1721v.41355c0 .095396.077342.17209.17273.17209h.41291c.095396 0 .1721-.076732.1721-.17209v-.41355c0-.095396-.076732-.1721-.1721-.1721h-.41291c-.00244 0-.0061-.0001464-.00976 0z" fill="#787878" stroke-width=".61734"/></g></svg>