<svg height="4.5pt" viewBox="0 0 4.5 4.5" width="4.5pt" xmlns="http://www.w3.org/2000/svg"><g stroke-linecap="round" stroke-linejoin="round" stroke-width=".50606" transform="matrix(1.2199 0 0 1.2199 -187.48 -211.27)"><path d="m157.17 175.02a1.6394 1.6394 0 0 1 -1.6394 1.6394 1.6394 1.6394 0 0 1 -1.6394-1.6394 1.6394 1.6394 0 0 1 1.6394-1.6394 1.6394 1.6394 0 0 1 1.6394 1.6394z" fill="#d15b56"/><path d="m155.35036 173.92578c-.0748.004-.13384.0653-.13384.14107v1.12345c0 .0782.0634.14108.14159.14108h.33848c.0782 0 .14108-.0629.14108-.14108v-1.12345c0-.0782-.0629-.14107-.14108-.14107h-.33848c-.002 0-.005-.00012-.008 0zm0 1.57716c-.0748.004-.13384.0653-.13384.14108v.339c0 .0782.0634.14107.14159.14107h.33848c.0782 0 .14108-.0629.14108-.14107v-.339c0-.0782-.0629-.14108-.14108-.14108h-.33848c-.002 0-.005-.00012-.008 0z" fill="#fff"/></g></svg>