<svg height="4.5pt" viewBox="0 0 4.5 4.5" width="4.5pt" xmlns="http://www.w3.org/2000/svg"><path d="m96.703412 99.637534c-.212753.000109-.40906.110895-.515214.290938l-1.348238 2.281518c-.228766.38737.05729.8717.515214.87178h2.698543c.457928-.00008.744495-.48441.515731-.87178l-1.350305-2.281518c-.106157-.180043-.302977-.290828-.515731-.290938zm-.26355.762746c.0024-.00024.0048 0 .0072 0h.514697c.03909 0 .0708.0312.0708.0703v1.14463c0 .0391-.03171.0708-.0708.0708h-.514662c-.03909 0-.07028-.0317-.07028-.0708v-1.14463c0-.0367.02738-.0667.06305-.0703zm.0036 1.64538c.0012-.00006.0024 0 .0036 0h.514697c.03909 0 .0708.0312.0708.0703v.51108c0 .0391-.03171.0703-.0708.0703h-.514662c-.03909 0-.07028-.0312-.07028-.0703v-.51108c0-.0379.02928-.0684.06666-.0703z" fill="#ffaf0f" transform="translate(-94.454666 -99.109653)"/></svg>